<svg width="22" height="23" viewBox="0 0 22 23" fill="none" xmlns="http://www.w3.org/2000/svg">
<path d="M0 0.918056C0 0.722811 0.0772641 0.535563 0.214795 0.397504C0.352326 0.259445 0.538858 0.181885 0.733356 0.181885H2.93342C3.09701 0.18193 3.25588 0.236878 3.38478 0.33799C3.51367 0.439101 3.60519 0.580571 3.64478 0.739903L4.2388 3.12657H21.2673C21.375 3.12667 21.4813 3.15057 21.5788 3.19658C21.6762 3.24259 21.7624 3.30957 21.8311 3.39278C21.8999 3.47598 21.9495 3.57335 21.9765 3.67799C22.0036 3.78262 22.0073 3.89195 21.9875 3.9982L19.7874 15.7769C19.756 15.9456 19.6668 16.098 19.5353 16.2077C19.4038 16.3174 19.2382 16.3775 19.0673 16.3777H5.86685C5.69588 16.3775 5.53033 16.3174 5.39884 16.2077C5.26734 16.098 5.17815 15.9456 5.14669 15.7769L2.94809 4.02028L2.36141 1.65423H0.733356C0.538858 1.65423 0.352326 1.57667 0.214795 1.43861C0.0772641 1.30055 0 1.1133 0 0.918056ZM4.54974 4.59891L6.47553 14.9053H18.4586L20.3844 4.59891H4.54974ZM7.33356 16.3777C6.55557 16.3777 5.80944 16.6879 5.25932 17.2401C4.70919 17.7924 4.40014 18.5414 4.40014 19.3223C4.40014 20.1033 4.70919 20.8523 5.25932 21.4045C5.80944 21.9568 6.55557 22.267 7.33356 22.267C8.11155 22.267 8.85768 21.9568 9.4078 21.4045C9.95793 20.8523 10.267 20.1033 10.267 19.3223C10.267 18.5414 9.95793 17.7924 9.4078 17.2401C8.85768 16.6879 8.11155 16.3777 7.33356 16.3777ZM17.6005 16.3777C16.8226 16.3777 16.0764 16.6879 15.5263 17.2401C14.9762 17.7924 14.6671 18.5414 14.6671 19.3223C14.6671 20.1033 14.9762 20.8523 15.5263 21.4045C16.0764 21.9568 16.8226 22.267 17.6005 22.267C18.3785 22.267 19.1247 21.9568 19.6748 21.4045C20.2249 20.8523 20.534 20.1033 20.534 19.3223C20.534 18.5414 20.2249 17.7924 19.6748 17.2401C19.1247 16.6879 18.3785 16.3777 17.6005 16.3777ZM7.33356 17.85C7.72256 17.85 8.09562 18.0051 8.37068 18.2812C8.64574 18.5574 8.80027 18.9319 8.80027 19.3223C8.80027 19.7128 8.64574 20.0873 8.37068 20.3634C8.09562 20.6396 7.72256 20.7947 7.33356 20.7947C6.94456 20.7947 6.5715 20.6396 6.29644 20.3634C6.02138 20.0873 5.86685 19.7128 5.86685 19.3223C5.86685 18.9319 6.02138 18.5574 6.29644 18.2812C6.5715 18.0051 6.94456 17.85 7.33356 17.85ZM17.6005 17.85C17.9895 17.85 18.3626 18.0051 18.6377 18.2812C18.9127 18.5574 19.0673 18.9319 19.0673 19.3223C19.0673 19.7128 18.9127 20.0873 18.6377 20.3634C18.3626 20.6396 17.9895 20.7947 17.6005 20.7947C17.2115 20.7947 16.8385 20.6396 16.5634 20.3634C16.2884 20.0873 16.1338 19.7128 16.1338 19.3223C16.1338 18.9319 16.2884 18.5574 16.5634 18.2812C16.8385 18.0051 17.2115 17.85 17.6005 17.85Z" fill="#3A3A3A"/>
</svg>
